<?xml version="1.0" encoding="utf-8"?>
<!-- Generator: Adobe Illustrator 24.3.0, SVG Export Plug-In . SVG Version: 6.00 Build 0)  -->
<svg version="1.0" id="katman_1" xmlns="http://www.w3.org/2000/svg" xmlns:xlink="http://www.w3.org/1999/xlink" x="0px" y="0px"
	 viewBox="0 0 841.89 595.28" style="enable-background:new 0 0 841.89 595.28;" xml:space="preserve">
<style type="text/css">
	.st0{clip-path:url(#SVGID_2_);}
	.st1{fill:#3D3D3D;}
</style>
<g>
	<defs>
		<rect id="SVGID_1_" x="70.39" y="205.03" width="702.04" height="184.48"/>
	</defs>
	<clipPath id="SVGID_2_">
		<use xlink:href="#SVGID_1_"  style="overflow:visible;"/>
	</clipPath>
	<g class="st0">
		<path class="st1" d="M585.63,382.86v-10.14h15.66v-6.1h-15.66v-9.43h19.35v-6.1h-26.03v37.88h26.03v-6.1L585.63,382.86z
			 M530.14,357.31c0.9-0.05,1.79,0.08,2.63,0.39c0.84,0.31,1.61,0.8,2.27,1.43c0.65,0.63,1.17,1.38,1.53,2.22
			c0.36,0.84,0.54,1.74,0.54,2.66c0,0.91-0.18,1.82-0.54,2.66c-0.36,0.84-0.87,1.6-1.53,2.22c-0.65,0.63-1.42,1.11-2.27,1.43
			c-0.84,0.31-1.74,0.45-2.63,0.39h-10v-13.41H530.14z M513.46,388.97h6.68v-12.1h9.94c8.34,0,13.74-5.07,13.74-12.97
			c0-7.74-5.45-12.81-13.74-12.81h-16.63L513.46,388.97z M444.67,351.09v23.22c0,9.32,6.63,15.21,16.04,15.21
			c9.41,0,16.04-5.89,16.04-15.15v-23.27h-6.63v23.27c0,5.12-3.53,8.83-9.41,8.83c-5.77,0-9.35-3.71-9.35-8.88v-23.22L444.67,351.09
			z M390.68,383.19c-3.34-0.13-6.49-1.58-8.8-4.03c-2.31-2.45-3.61-5.72-3.61-9.13c0-3.4,1.29-6.67,3.61-9.13
			c2.31-2.45,5.47-3.9,8.8-4.03c7,0,12.35,5.4,12.35,13.19c0.08,1.7-0.17,3.4-0.76,5c-0.58,1.6-1.48,3.05-2.64,4.28
			c-1.16,1.23-2.55,2.21-4.09,2.87C394.01,382.87,392.35,383.2,390.68,383.19L390.68,383.19z M390.68,350.54
			c-3.78,0.02-7.46,1.17-10.59,3.32c-3.13,2.15-5.57,5.2-7,8.76c-1.44,3.56-1.8,7.47-1.06,11.25c0.74,3.77,2.57,7.24,5.24,9.96
			c2.67,2.72,6.08,4.57,9.78,5.32c3.7,0.75,7.54,0.36,11.03-1.11c3.49-1.47,6.47-3.97,8.57-7.16c2.1-3.2,3.22-6.96,3.23-10.81
			c0.06-2.58-0.4-5.15-1.35-7.55c-0.94-2.4-2.36-4.57-4.15-6.4s-3.93-3.26-6.29-4.21C395.73,350.94,393.21,350.48,390.68,350.54z
			 M323.7,357.31c4.49,0,6.95,2.72,6.95,6.16c0,3.6-2.41,6.32-6.95,6.32h-8.93v-12.49H323.7z M308.1,388.97h6.68V376h7.64
			l9.46,12.97h7.91l-10.75-14.44c2.45-0.64,4.61-2.11,6.13-4.17c1.52-2.06,2.3-4.59,2.21-7.16c0-7.36-5.4-12.1-13.74-12.1h-15.55
			L308.1,388.97z M272.23,368.42h-15.98v5.61h9.73v7.52c-2.52,1.2-5.29,1.77-8.07,1.69c-7.64,0-13.31-4.91-13.31-13.24
			c-0.05-1.73,0.24-3.45,0.86-5.06c0.62-1.61,1.56-3.07,2.75-4.3c1.2-1.23,2.62-2.2,4.2-2.84c1.57-0.65,3.26-0.96,4.96-0.92
			c1.92-0.06,3.83,0.28,5.63,0.99c1.79,0.71,3.42,1.78,4.8,3.15l3.96-5.07c-3.93-3.63-9.08-5.56-14.38-5.4
			c-11.12,0-19.56,8.23-19.56,19.46c0,11.83,8.34,19.51,20.1,19.51c5.08,0.05,10.07-1.43,14.32-4.25L272.23,368.42z"/>
		<path class="st1" d="M452.33,325.82h90.59v-11.28h-75.07v-36.11h56.38v-11.41h-56.38v-33.26h75.06v-11.25h-90.59V325.82z"/>
		<path class="st1" d="M499.41,205.82l-12.26,14.04l38.5-14.04H499.41z"/>
		<path class="st1" d="M680.85,222.52v103.29h91.58v-11.28h-77.43v-92.02H680.85z"/>
		<path class="st1" d="M601.62,222.52l-51.51,103.3h17.41l13.18-26.74h61.79l13.29,26.74h17.24l-51.57-103.3H601.62z M587.22,286.13
			l24.27-49.34l24.57,49.34H587.22z"/>
		<path class="st1" d="M403.17,282.63c23.21-6.31,25.47-23.93,25.35-30.22c-1.38-18.45-13.58-29.88-35.49-29.88h-63.86v103.29h14.56
			v-43.34h41.57l30.58,43.32h18.35c0,0-22-29.16-31.06-43.19V282.63z M391.04,270.26h-47.31v-35.51h48.97
			c11.26,0,17.61,5.36,19.89,12.18c0.68,2.5,0.86,5.12,0.52,7.7c-0.34,2.57-1.18,5.05-2.48,7.29c-4.09,6.9-11.86,8.37-19.59,8.37"/>
		<path class="st1" d="M241.19,321.71c-28.43,0-51.85-23.29-51.85-51.35c0-28.03,22.31-52.43,52.95-52.43
			c6.79-0.06,13.52,1.26,19.81,3.87c6.29,2.61,12.01,6.46,16.83,11.34c4.82,4.87,8.65,10.67,11.26,17.06
			c2.61,6.39,3.95,13.24,3.95,20.16C294.13,298.41,269.61,321.71,241.19,321.71z M241.68,205.03c-41.09,0-69.1,29.54-69.1,65.29
			c0,37.64,30.94,64.21,69.1,64.21c38.16,0,69.07-26.19,69.07-64.21C310.75,234.57,282.39,205.03,241.68,205.03z"/>
		<path class="st1" d="M135.92,259.06h10.5l19.07-36.54h-15.34L135.92,259.06z"/>
		<path class="st1" d="M70.39,222.52v103.29h91.57v-11.28H84.56v-92.02H70.39z"/>
	</g>
</g>
</svg>
