<?xml version="1.0" encoding="utf-8"?>
<!-- Generator: Adobe Illustrator 24.3.0, SVG Export Plug-In . SVG Version: 6.00 Build 0)  -->
<svg version="1.1" id="katman_1" xmlns="http://www.w3.org/2000/svg" xmlns:xlink="http://www.w3.org/1999/xlink" x="0px" y="0px"
	 viewBox="0 0 2500 2500" style="enable-background:new 0 0 2500 2500;" xml:space="preserve">
<style type="text/css">
	.st0{fill-rule:evenodd;clip-rule:evenodd;fill:#FFFFFF;}
	.st1{fill-rule:evenodd;clip-rule:evenodd;}
</style>
<g>
	<path class="st0" d="M77.6,77.6h2344.7v2344.7H77.6V77.6z"/>
	<path class="st1" d="M1890.6,1281.4c-18.4,100-88.1,134.2-150.8,134.2h-341.7v-305.7c0-21.1,5.6-24.4,23.8-36l-128.4-1.4
		c6.9,3.4,26.1,13.1,26.1,35.7l-0.4,295.1c0,24.9-10.4,33.7-25.7,39.2l449.4-0.2c116.5,0.4,164-44.3,197.8-84.4
		c37-43.5,56.6-123.6,14.6-192.6c-30.1-49.8-86.9-91.8-151.6-101.9c-15-2.3-34-6.1-57.6-6.1c-23.4,0-44.7,2.7-61.2,6.1
		c-53.5,12.7-121.5,47.3-152.7,104.2c-32.1,59.1-16.1,123.2,7.7,159c21.5,33.1,72.9,76.6,141.8,78.9l2.1-0.8
		c-45.3-23.4-68.3-66-82.3-123.4c-10.4-43.9-2.9-109.3,35.3-150.4c28.4-30.2,70.6-46.6,109.2-47c39.1,0.4,79.3,15,107.6,45.1
		C1892.1,1170.2,1898.6,1239.8,1890.6,1281.4L1890.6,1281.4z M520.2,1413.2l-114.5-145.3c127-20.2,114.5-198.1-36.3-198.1H112.1
		c17.5,6.1,29.2,15,29.2,32.1v301.9c0.2,14.1-9.6,30.4-22.8,38.6H241c-13.2-6.8-26.1-25.9-26.1-37.6V1274h104.8l126.1,168.7l108-0.2
		C542.4,1437,530.9,1426.9,520.2,1413.2L520.2,1413.2z M319.5,1246.9H214.8l-0.4-149.8l124.5-0.4
		C428.9,1097.2,450.4,1245.3,319.5,1246.9L319.5,1246.9z M989.2,1111c-9.2-20.3,1.7-31.9,17.5-38.6H862.6
		c15,11.8,32.2,20.5,38.9,43.2l162.7,326.8h38l152.3-337.7c8.8-20,17.3-24.9,26.1-32.3h-84.8c15.5,4.4,28,17.9,18.2,39.7
		l-111.7,247.9L989.2,1111L989.2,1111z M2038.7,1399.9c0,22.4-19.2,37.5-26.7,42.4h82.1c-7.5-4.9-25.5-16.7-25.5-39v-261.6
		l256.2,300.6h37.6v-334.6c0-22.4,18.2-30.4,25.5-35.2h-81.7c7.3,4.9,26.5,16.2,26.5,38.4l-0.4,216.4l-221.2-254.8h-118
		c12.5,6.3,45.5,20,45.5,50.6V1399.9L2038.7,1399.9z M854.2,1072.3H556c14.2,7.6,27.2,13.3,27.2,36.3l-0.2,296.2
		c0,20.5-8.4,29.7-22.6,37.6h308.5l29-89.4c-15,17.7-50.7,62.2-115.9,62l-117.6-0.2v-148.5H750c27.2,0,41.3,15,50.3,29.3v-88.2
		c-12.7,18.1-24,30.8-50.5,30.8h-85.4v-139.9l120.5,0.4c50.7,0.4,72.5,32.7,83.8,51.7L854.2,1072.3L854.2,1072.3z"/>
</g>
</svg>
